<svg xmlns="http://www.w3.org/2000/svg" viewBox="0 0 837 520">
            <path d="M414.457 13.112c57.037 8.921 120.084 15.47 183.257 29.053 62.634 13.509 125.401 34.055 169.494 69.287 22.37 17.195 39.88 37.7 51.765 60.373 5.942 11.338 10.478 23.218 13.512 35.493a154.017 154.017 0 0 1 4.255 28.226 155.809 155.809 0 0 1 .251 9.64c.008 3.22-.077 6.454-.252 9.696a178.84 178.84 0 0 1-.797 9.753 190.875 190.875 0 0 1-3.194 19.61 210.547 210.547 0 0 1-5.257 19.627 233.65 233.65 0 0 1-7.217 19.501c-10.872 25.866-26.682 51.006-45.85 74.132-63.724 73.64-135.48 111.365-205.04 119.452-8.798 1.241-17.583 2.059-26.37 2.532-4.394.236-8.788.388-13.185.462-4.397.075-8.796.074-13.2.006a447.28 447.28 0 0 1-6.61-.151 436.64 436.64 0 0 1-6.618-.244 547.1 547.1 0 0 1-13.263-.744c-8.857-.603-17.744-1.405-26.67-2.347-35.699-3.781-72.089-9.754-109.39-14.766-73.997-11.647-152.35-5.506-220.302 2.477C66.81 514.053 9.8 487.037 1.152 377.13c-.34-3.976-.603-7.983-.793-12.014a329.605 329.605 0 0 1-.347-12.15 357.84 357.84 0 0 1 .594-24.518 383.07 383.07 0 0 1 2.226-24.524 401.251 401.251 0 0 1 3.744-24.254c5.955-32.082 15.617-62.699 27.8-90.758 24.47-56.164 58.654-102.473 97.319-134.523C170.532 22.087 213.72 5.153 259.644 1.21A287.99 287.99 0 0 1 277.088.163c2.936-.09 5.888-.138 8.857-.147 2.968-.01 5.954.017 8.958.082 12.015.253 24.325 1.075 37.025 2.3 12.71 1.22 25.825 2.832 39.517 4.667a2984.5 2984.5 0 0 1 20.999 2.905c7.16 1.013 14.49 2.065 22.013 3.142z"/>
</svg>
