<svg viewBox="0 0 512 512" xmlns="http://www.w3.org/2000/svg">
    <path d="m232 296h48v16h-48z"/>
    <circle cx="160" cy="304" r="8"/>
    <circle cx="184" cy="304" r="8"/>
    <circle cx="328" cy="304" r="8"/>
    <circle cx="352" cy="304" r="8"/>
    <path d="m344 360h-176a8.00008 8.00008 0 0 0 -8 8v40a8.00008 8.00008 0 0 0 8 8h176a8.00008 8.00008 0 0 0 8-8v-40a8.00008 8.00008 0 0 0 -8-8zm-8 40h-160v-24h160z"/>
    <path d="m216 88h16v32h-16z"/>
    <path d="m48 152h16v32h-16z"/>
    <path d="m48 296h16v32h-16z"/>
    <path d="m448 296h16v32h-16z"/>
    <path d="m488 264h-464a8.00008 8.00008 0 0 0 -8 8v216a8.00008 8.00008 0 0 0 8 8h464a8.00008 8.00008 0 0 0 8-8v-216a8.00008 8.00008 0 0 0 -8-8zm-344 16h56v48h-56zm72 48v-48h80v48zm-72 16h224v88h-224zm224-16h-56v-48h56zm-336-48h96v200h-96zm112 168h224v32h-224zm336 32h-96v-200h96z"/>
    <path d="m280 88h16v32h-16z"/>
    <path d="m448 152h16v32h-16z"/>
    <path d="m488 16h-464a8.00008 8.00008 0 0 0 -8 8v184a8.00008 8.00008 0 0 0 8 8h112a8.00008 8.00008 0 0 0 8-8v-56h36.686l-18.34278 18.34277.00018.00025a7.97477 7.97477 0 0 0 -2.3434 5.65698v32a8.00008 8.00008 0 0 0 8 8h176a8.00008 8.00008 0 0 0 8-8v-32a7.97429 7.97429 0 0 0 -2.34351-5.657l.00025-.00025-18.34274-18.34275h36.686v56a8.00008 8.00008 0 0 0 8 8h112a8.00008 8.00008 0 0 0 8-8v-184a8.00008 8.00008 0 0 0 -8-8zm-360 184h-96v-168h96zm16-168h104v104h-104zm192 168h-160v-16h160zm-11.314-32h-137.372l16-16h105.372zm-60.686-32v-104h104v104zm216 64h-96v-168h96z"/>
</svg>
