<svg xmlns="http://www.w3.org/2000/svg" viewBox="0 0 681 398">
            <path d="M371.598 27.909C415.63 41.136 464.86 53.9 513.408 71.554c48.13 17.527 95.58 39.945 126.367 69.532 31.409 29.118 45.735 64.324 39.211 98.668-1.552 8.573-4.31 17.08-8.18 25.419a125.995 125.995 0 0 1-6.621 12.37 146.15 146.15 0 0 1-8.192 12.051c-11.922 15.835-27.774 30.63-46.302 43.971-60.883 41.739-127.482 63.85-188.362 63.715-61.627.814-117.536-20.616-174.297-44.12-56.027-24.258-116.43-41.905-167.297-59.398-50.4-17.64-85.857-46.365-78.438-101.943 1.03-8.4 2.98-16.966 5.73-25.559 1.375-4.295 2.949-8.6 4.707-12.893 1.758-4.294 3.7-8.58 5.809-12.839 8.442-17.042 19.558-33.66 32.45-48.998 25.84-30.746 58.599-56.14 93.199-71.844C177.964 3.772 214.196-2.1 250.869.855c18.426 1.403 37.106 4.841 56.844 9.586 9.876 2.373 20.031 5.067 30.622 8.001a2287.495 2287.495 0 0 1 16.238 4.575 6451.09 6451.09 0 0 1 17.025 4.892z"/>
</svg>
