<svg xmlns="http://www.w3.org/2000/svg" viewBox="0 0 612 456">
            <path d="M228.493 63.273c43.647-14.41 91.288-32.181 141.174-45.556C419.137 4.478 470.854-4.366 513.034 2.21c42.421 5.834 74.343 26.448 88.69 58.306 3.644 7.91 6.265 16.458 7.875 25.504.806 4.522 1.36 9.168 1.67 13.922.309 4.753.373 9.614.2 14.563-.687 19.798-5.187 41-12.713 62.544-25.935 69.074-67.805 125.354-117.745 160.143-50.01 35.993-108.09 50.495-168.056 63.788-59.798 12.256-119.39 32.432-171.082 47.267-51.394 14.45-96.905 11.254-122.695-38.503-3.974-7.468-7.287-15.6-9.962-24.21a174.027 174.027 0 0 1-3.538-13.255 197.508 197.508 0 0 1-2.603-13.842c-2.857-18.793-3.28-38.77-1.515-58.72 3.535-39.986 15.806-79.556 35.14-112.248 19.356-32.962 45.666-58.538 77.397-77.142 15.896-9.413 33.167-17.307 52.055-24.736 9.449-3.719 19.311-7.334 29.668-11.003a2239.99 2239.99 0 0 1 15.923-5.562 6016.6 6016.6 0 0 1 16.75-5.754z"/>
</svg>
